<?xml version="1.0" standalone="no"?>
<!DOCTYPE svg PUBLIC "-//W3C//DTD SVG 20010904//EN"
 "http://www.w3.org/TR/2001/REC-SVG-20010904/DTD/svg10.dtd">
<svg version="1.0" xmlns="http://www.w3.org/2000/svg"
 width="512.000000pt" height="512.000000pt" viewBox="0 0 512.000000 512.000000"
 preserveAspectRatio="xMidYMid meet">
<metadata>
Created by potrace 1.11, written by Peter Selinger 2001-2013
</metadata>
<g transform="translate(0.000000,512.000000) scale(0.100000,-0.100000)"
fill="#000000" stroke="none">
<path d="M361 5104 c-30 -8 -77 -27 -105 -42 -68 -36 -167 -135 -200 -200 -60
-118 -56 29 -56 -2308 0 -1935 2 -2146 16 -2195 53 -179 200 -316 373 -349 36
-7 766 -10 2180 -10 2304 1 2164 -2 2287 56 117 55 228 202 253 335 6 36 10
771 10 2179 -1 1813 -3 2133 -15 2179 -42 159 -147 277 -302 339 l-67 27
-2160 2 c-1868 2 -2167 0 -2214 -13z"/>
</g>
</svg>
